<?xml version="1.0" encoding="UTF-8" standalone="no"?>
<svg width="52px" height="46px" viewBox="0 0 52 46" version="1.1" xmlns="http://www.w3.org/2000/svg" xmlns:xlink="http://www.w3.org/1999/xlink">
    <!-- Generator: Sketch 3.8.3 (29802) - http://www.bohemiancoding.com/sketch -->
    <title>Group 2</title>
    <desc>Created with Sketch.</desc>
    <defs></defs>
    <g id="Page-1" stroke="none" stroke-width="1" fill="none" fill-rule="evenodd">
        <g id="12.5_PHOTO_preload_01" transform="translate(-134.000000, -220.000000)" fill="#FFFFFF">
            <g id="Group-2" transform="translate(134.500000, 220.500000)">
                <path d="M37.3206483,6.12167442 C34.2940317,6.12167442 31.389415,7.9195814 29.352015,11.0538837 C28.5122483,12.3442326 27.0909483,13.1144651 25.5496817,13.1144651 C24.0063817,13.1144651 22.5850817,12.3421395 21.7473483,11.0517907 C19.7119817,7.92376744 16.8144817,6.12795349 13.7959983,6.12795349 C9.96418167,6.12795349 6.08254833,9.04248837 6.08254833,14.6141163 C6.08254833,21.4028372 13.1707483,27.146093 18.347615,31.3394651 C20.778465,33.3121395 22.5393317,34.6903953 23.703415,35.601907 C24.383565,36.1366744 24.9772983,36.6023721 25.5161317,37.0324884 C26.5846483,36.1565581 27.8991983,35.1320233 29.7352983,33.6993488 L32.7974983,31.3038837 C38.7104317,26.6793488 45.0188483,21.1841163 45.0188483,14.5167907 C45.0188483,9.00586047 41.1473817,6.12167442 37.3206483,6.12167442" id="Fill-1"></path>
                <path d="M34.7333333,33.9298953 L31.6691,36.3253605 C28.4808333,38.8129186 26.9294,40.022686 25.5436833,41.3245465 C24.5331167,40.3962907 23.40665,39.5130349 21.7647333,38.2258256 C20.43595,37.185593 18.7269333,35.8460581 16.3682667,33.9298953 C10.6749333,29.3189651 2.87913333,23.0032674 2.87913333,14.6144302 C2.87913333,6.96024419 8.50435,2.8307093 13.7961,2.8307093 C17.9003833,2.8307093 21.7688,5.16024419 24.4101,9.21966279 C24.8960667,9.96896512 26.2045167,9.96896512 26.6915,9.21966279 C29.3338167,5.15605814 33.2083333,2.82443023 37.32075,2.82443023 C42.6043667,2.82443023 48.2224667,6.92256977 48.2224667,14.5171047 C48.2224667,22.6935 41.2603333,28.8250116 34.7333333,33.9298953 M37.32075,-0.000104651163 C32.8413167,-0.000104651163 28.67705,2.15047674 25.5497833,6.06547674 C22.4265833,2.15361628 18.27045,0.0061744186 13.7961,0.0061744186 C7.17455,0.0061744186 0.13515,5.1257093 0.13515,14.6144302 C0.13515,24.3752442 8.544,31.1880349 14.68365,36.1621047 C17.0087667,38.0500116 18.7147333,39.3874535 20.1024833,40.4758256 C22.2954333,42.1941977 23.3954667,43.0575698 24.5829333,44.2715233 C24.8391333,44.5373372 25.1837833,44.6828023 25.5497833,44.6828023 C25.9147667,44.6828023 26.2584,44.5383837 26.5186667,44.2725698 C28.0873833,42.6672209 29.5107167,41.5547791 33.3272833,38.576407 L36.3976167,36.1767558 C41.4890833,32.1947791 50.96645,24.7802442 50.96645,14.5171047 C50.96645,5.08698837 43.9351833,-0.000104651163 37.32075,-0.000104651163" id="Fill-3"></path>
            </g>
        </g>
    </g>
</svg>